<mxfile host="app.diagrams.net" modified="2020-10-09T16:18:40.378Z" agent="5.0 (Windows NT 10.0; Win64; x64) AppleWebKit/537.36 (KHTML, like Gecko) Chrome/86.0.4240.75 Safari/537.36" etag="0m4iP9BevWuvLydhNKuO" version="13.7.9" type="github">
  <diagram id="R2lEEEUBdFMjLlhIrx00" name="Page-1">
    <mxGraphModel dx="1038" dy="585" grid="1" gridSize="10" guides="1" tooltips="1" connect="1" arrows="1" fold="1" page="1" pageScale="1" pageWidth="850" pageHeight="1100" math="0" shadow="0" extFonts="Permanent Marker^https://fonts.googleapis.com/css?family=Permanent+Marker">
      <root>
        <mxCell id="0" />
        <mxCell id="1" parent="0" />
        <mxCell id="VTgU6rWMDkE47YNrMJMj-1" value="Username" style="rounded=0;whiteSpace=wrap;html=1;" vertex="1" parent="1">
          <mxGeometry x="110" y="160" width="120" height="40" as="geometry" />
        </mxCell>
        <mxCell id="VTgU6rWMDkE47YNrMJMj-2" value="&lt;u&gt;Email ID&lt;/u&gt;" style="rounded=0;whiteSpace=wrap;html=1;" vertex="1" parent="1">
          <mxGeometry x="230" y="160" width="120" height="40" as="geometry" />
        </mxCell>
        <mxCell id="VTgU6rWMDkE47YNrMJMj-3" value="Address" style="rounded=0;whiteSpace=wrap;html=1;" vertex="1" parent="1">
          <mxGeometry x="350" y="160" width="120" height="40" as="geometry" />
        </mxCell>
        <mxCell id="VTgU6rWMDkE47YNrMJMj-4" value="Password" style="rounded=0;whiteSpace=wrap;html=1;" vertex="1" parent="1">
          <mxGeometry x="470" y="160" width="120" height="40" as="geometry" />
        </mxCell>
        <mxCell id="VTgU6rWMDkE47YNrMJMj-5" value="Mobile No." style="rounded=0;whiteSpace=wrap;html=1;" vertex="1" parent="1">
          <mxGeometry x="590" y="160" width="120" height="40" as="geometry" />
        </mxCell>
        <mxCell id="VTgU6rWMDkE47YNrMJMj-6" value="Type" style="rounded=0;whiteSpace=wrap;html=1;" vertex="1" parent="1">
          <mxGeometry x="710" y="160" width="120" height="40" as="geometry" />
        </mxCell>
        <mxCell id="VTgU6rWMDkE47YNrMJMj-7" value="Registered Member" style="text;html=1;align=center;verticalAlign=middle;resizable=0;points=[];autosize=1;" vertex="1" parent="1">
          <mxGeometry x="100" y="130" width="120" height="20" as="geometry" />
        </mxCell>
        <mxCell id="VTgU6rWMDkE47YNrMJMj-9" value="Manufacture" style="rounded=0;whiteSpace=wrap;html=1;" vertex="1" parent="1">
          <mxGeometry x="110" y="290" width="120" height="40" as="geometry" />
        </mxCell>
        <mxCell id="VTgU6rWMDkE47YNrMJMj-10" value="&lt;u&gt;Ad ID&lt;/u&gt;" style="rounded=0;whiteSpace=wrap;html=1;" vertex="1" parent="1">
          <mxGeometry x="230" y="290" width="120" height="40" as="geometry" />
        </mxCell>
        <mxCell id="VTgU6rWMDkE47YNrMJMj-11" value="Expected Price" style="rounded=0;whiteSpace=wrap;html=1;" vertex="1" parent="1">
          <mxGeometry x="350" y="290" width="120" height="40" as="geometry" />
        </mxCell>
        <mxCell id="VTgU6rWMDkE47YNrMJMj-12" value="Model Name" style="rounded=0;whiteSpace=wrap;html=1;" vertex="1" parent="1">
          <mxGeometry x="470" y="290" width="120" height="40" as="geometry" />
        </mxCell>
        <mxCell id="VTgU6rWMDkE47YNrMJMj-13" value="Year of Purchase" style="rounded=0;whiteSpace=wrap;html=1;" vertex="1" parent="1">
          <mxGeometry x="590" y="290" width="120" height="40" as="geometry" />
        </mxCell>
        <mxCell id="VTgU6rWMDkE47YNrMJMj-14" value="Status" style="rounded=0;whiteSpace=wrap;html=1;" vertex="1" parent="1">
          <mxGeometry x="710" y="290" width="120" height="40" as="geometry" />
        </mxCell>
        <mxCell id="VTgU6rWMDkE47YNrMJMj-15" value="Product Ads" style="text;html=1;align=center;verticalAlign=middle;resizable=0;points=[];autosize=1;" vertex="1" parent="1">
          <mxGeometry x="120" y="260" width="80" height="20" as="geometry" />
        </mxCell>
        <mxCell id="VTgU6rWMDkE47YNrMJMj-16" value="Type" style="rounded=0;whiteSpace=wrap;html=1;" vertex="1" parent="1">
          <mxGeometry x="830" y="290" width="120" height="40" as="geometry" />
        </mxCell>
        <mxCell id="VTgU6rWMDkE47YNrMJMj-18" value="Inspecting option" style="rounded=0;whiteSpace=wrap;html=1;" vertex="1" parent="1">
          <mxGeometry x="120" y="380" width="120" height="40" as="geometry" />
        </mxCell>
        <mxCell id="VTgU6rWMDkE47YNrMJMj-19" value="Accessories Details" style="rounded=0;whiteSpace=wrap;html=1;" vertex="1" parent="1">
          <mxGeometry x="240" y="380" width="120" height="40" as="geometry" />
        </mxCell>
        <mxCell id="VTgU6rWMDkE47YNrMJMj-20" value="Bike" style="text;html=1;strokeColor=none;fillColor=none;align=center;verticalAlign=middle;whiteSpace=wrap;rounded=0;" vertex="1" parent="1">
          <mxGeometry x="120" y="350" width="40" height="20" as="geometry" />
        </mxCell>
        <mxCell id="VTgU6rWMDkE47YNrMJMj-21" value="&lt;u&gt;Ad ID&lt;/u&gt;" style="rounded=0;whiteSpace=wrap;html=1;" vertex="1" parent="1">
          <mxGeometry x="360" y="380" width="120" height="40" as="geometry" />
        </mxCell>
        <mxCell id="VTgU6rWMDkE47YNrMJMj-22" value="Initiation Date" style="rounded=0;whiteSpace=wrap;html=1;" vertex="1" parent="1">
          <mxGeometry x="120" y="470" width="120" height="40" as="geometry" />
        </mxCell>
        <mxCell id="VTgU6rWMDkE47YNrMJMj-23" value="Expiration Date" style="rounded=0;whiteSpace=wrap;html=1;" vertex="1" parent="1">
          <mxGeometry x="950" y="290" width="120" height="40" as="geometry" />
        </mxCell>
        <mxCell id="VTgU6rWMDkE47YNrMJMj-24" value="Expiration Date" style="rounded=0;whiteSpace=wrap;html=1;" vertex="1" parent="1">
          <mxGeometry x="240" y="470" width="120" height="40" as="geometry" />
        </mxCell>
        <mxCell id="VTgU6rWMDkE47YNrMJMj-25" value="Making&amp;nbsp; Ad" style="text;html=1;strokeColor=none;fillColor=none;align=center;verticalAlign=middle;whiteSpace=wrap;rounded=0;" vertex="1" parent="1">
          <mxGeometry x="120" y="440" width="70" height="20" as="geometry" />
        </mxCell>
        <mxCell id="VTgU6rWMDkE47YNrMJMj-26" value="Chat Text" style="rounded=0;whiteSpace=wrap;html=1;" vertex="1" parent="1">
          <mxGeometry x="360" y="570" width="120" height="40" as="geometry" />
        </mxCell>
        <mxCell id="VTgU6rWMDkE47YNrMJMj-27" value="&lt;u&gt;Ad ID&lt;/u&gt;" style="rounded=0;whiteSpace=wrap;html=1;" vertex="1" parent="1">
          <mxGeometry x="120" y="570" width="120" height="40" as="geometry" />
        </mxCell>
        <mxCell id="VTgU6rWMDkE47YNrMJMj-28" value="&lt;u&gt;Buyer Email&lt;/u&gt;" style="rounded=0;whiteSpace=wrap;html=1;" vertex="1" parent="1">
          <mxGeometry x="240" y="570" width="120" height="40" as="geometry" />
        </mxCell>
        <mxCell id="VTgU6rWMDkE47YNrMJMj-30" value="Time Log" style="rounded=0;whiteSpace=wrap;html=1;" vertex="1" parent="1">
          <mxGeometry x="480" y="570" width="120" height="40" as="geometry" />
        </mxCell>
        <mxCell id="VTgU6rWMDkE47YNrMJMj-31" value="Chat" style="text;html=1;strokeColor=none;fillColor=none;align=center;verticalAlign=middle;whiteSpace=wrap;rounded=0;" vertex="1" parent="1">
          <mxGeometry x="130" y="540" width="40" height="20" as="geometry" />
        </mxCell>
      </root>
    </mxGraphModel>
  </diagram>
</mxfile>
